<?xml version="1.0" encoding="UTF-8"?>
<svg id="Layer_1" xmlns="http://www.w3.org/2000/svg" xmlns:xlink="http://www.w3.org/1999/xlink" version="1.1" viewBox="0 0 1366 768">
  <!-- Generator: Adobe Illustrator 29.3.0, SVG Export Plug-In . SVG Version: 2.1.0 Build 146)  -->
  <defs>
    <style>
      .st0 {
        fill: #D3AE37;
      }

      .st1 {
        fill: url(#linear-gradient2);
      }

      .st2 {
        fill: url(#linear-gradient1);
      }

      .st3 {
        fill: url(#linear-gradient3);
      }

      .st4 {
        fill: url(#linear-gradient);
      }
    </style>
    <linearGradient id="linear-gradient" x1="62.22" y1="416.55" x2="115.48" y2="353.98" gradientUnits="userSpaceOnUse">
      <stop offset="0" stop-color="#d3ae37"/>
      <stop offset="1" stop-color="#f4e6ab"/>
    </linearGradient>
    <linearGradient id="linear-gradient1" x1="111.87" y1="373.08" x2="260.36" y2="198.63" xlink:href="#linear-gradient"/>
    <linearGradient id="linear-gradient2" x1="173.23" y1="520.53" x2="355.3" y2="306.61" xlink:href="#linear-gradient"/>
    <linearGradient id="linear-gradient3" x1="160.36" y1="507.3" x2="348.39" y2="286.4" xlink:href="#linear-gradient"/>
  </defs>
  <g>
    <path class="st4" d="M108.36,436.22c2.28-5,1.06-12.37-2.71-16.38l-32.25-34.23c-3.77-4-6.11-11.72-5.2-17.14l6.22-36.95c.91-5.42-1.45-6.61-5.24-2.63l-4.1,4.3c-3.8,3.98-5.93,11.63-4.75,17l16.8,76.05c1.19,5.37,5.19,13.09,8.9,17.15l5.98,6.55c3.71,4.06,8.61,3.29,10.89-1.71l5.48-12.02Z"/>
    <path class="st2" d="M90.8,359.35c-.7,5.45,1.69,13.3,5.32,17.43l19.3,21.95c3.63,4.13,8.47,3.42,10.75-1.59l26.76-58.72c2.28-5,8.13-11.2,13-13.76l113.53-59.74c4.87-2.56,5.76-7.93,1.99-11.93l-62.67-66.44c-3.77-4-9.97-4.02-13.76-.04l-99.38,104.16c-3.8,3.98-7.48,11.7-8.18,17.15l-6.65,51.52Z"/>
    <path class="st1" d="M219.93,539.83c-4.31,3.42-10.76,2.8-14.33-1.38l-68.6-80.24c-3.57-4.18-6.5-7.6-6.5-7.61s0,0,0,0-1.87,4.09-4.16,9.09l-4.35,9.5c-2.29,5-1.13,12.42,2.58,16.48l86.89,95.23c3.71,4.06,9.55,3.87,12.99-.42l90.68-113.35c3.44-4.29,2.72-5.01-1.59-1.59l-93.62,74.3Z"/>
    <path class="st3" d="M309.85,283.1c-3.77-4-10.83-5.15-15.67-2.55l-104.95,56.26c-4.85,2.6-10.69,8.82-12.98,13.82l-30.83,67.35c-2.29,5-4.14,9.12-4.12,9.16s2.93,3.63,6.41,7.89l58.04,71c3.48,4.26,10.14,5.35,14.8,2.43l114.71-71.83c4.66-2.92,9.23-6.26,10.16-7.41s2.67-6.5,3.87-11.87l14.53-64.95c1.2-5.37-.9-13.03-4.68-17.03l-49.31-52.28Z"/>
  </g>
  <g>
    <path class="st0" d="M411.62,328.16c0-7.42,1.3-13.99,3.89-19.69,2.59-5.7,6.04-10.45,10.36-14.25,4.14-3.63,8.85-6.39,14.12-8.29,5.27-1.9,10.58-2.85,15.94-2.85s10.66.95,15.94,2.85c5.27,1.9,10.06,4.66,14.38,8.29,4.14,3.8,7.51,8.55,10.1,14.25,2.59,5.7,3.89,12.27,3.89,19.69v9.33h-26.43v-9.33c0-6.39-1.77-11.1-5.31-14.12-3.54-3.02-7.73-4.53-12.57-4.53s-9.03,1.51-12.57,4.53c-3.54,3.02-5.31,7.73-5.31,14.12v97.42c0,6.39,1.77,11.1,5.31,14.12,3.54,3.02,7.73,4.53,12.57,4.53s9.02-1.51,12.57-4.53c3.54-3.02,5.31-7.73,5.31-14.12v-34.72h-20.99v-23.32h47.41v58.04c0,7.77-1.3,14.42-3.89,19.95-2.59,5.53-5.96,10.1-10.1,13.73-4.32,3.8-9.11,6.65-14.38,8.55-5.27,1.9-10.58,2.85-15.94,2.85s-10.67-.95-15.94-2.85c-5.27-1.9-9.97-4.75-14.12-8.55-4.32-3.63-7.77-8.2-10.36-13.73-2.59-5.53-3.89-12.18-3.89-19.95v-97.42Z"/>
    <path class="st0" d="M519.66,381.79c0-5.35.34-10.27,1.04-14.77.69-4.49,1.98-8.46,3.89-11.92,3.11-5.7,7.55-10.28,13.34-13.73,5.79-3.45,12.82-5.18,21.12-5.18s15.33,1.73,21.12,5.18c5.79,3.46,10.23,8.03,13.34,13.73,1.9,3.46,3.19,7.43,3.89,11.92.69,4.49,1.04,9.42,1.04,14.77v43.27c0,5.36-.35,10.28-1.04,14.77-.69,4.49-1.99,8.46-3.89,11.92-3.11,5.7-7.56,10.28-13.34,13.73-5.79,3.46-12.82,5.18-21.12,5.18s-15.33-1.72-21.12-5.18c-5.79-3.45-10.23-8.03-13.34-13.73-1.9-3.45-3.2-7.42-3.89-11.92-.69-4.49-1.04-9.41-1.04-14.77v-43.27ZM546.09,429.21c0,5.01,1.17,8.77,3.5,11.27,2.33,2.5,5.48,3.76,9.46,3.76s7.13-1.25,9.46-3.76c2.33-2.5,3.5-6.26,3.5-11.27v-51.56c0-5.01-1.17-8.76-3.5-11.27-2.33-2.5-5.49-3.76-9.46-3.76s-7.13,1.25-9.46,3.76c-2.33,2.51-3.5,6.26-3.5,11.27v51.56Z"/>
    <path class="st0" d="M616.3,284.63h26.43v147.43c0,5.01.91,8.42,2.72,10.23,1.81,1.81,5.22,2.98,10.23,3.5v24.87c-6.05,0-11.49-.48-16.32-1.43-4.84-.95-8.98-2.8-12.44-5.57-3.46-2.59-6.09-6.26-7.9-11.01-1.81-4.75-2.72-11.01-2.72-18.78v-149.24Z"/>
    <path class="st0" d="M718.64,469.11v-11.92c-1.73,1.9-3.37,3.67-4.92,5.31-1.55,1.64-3.28,3.07-5.18,4.27-1.9,1.21-4.06,2.16-6.48,2.85-2.42.69-5.27,1.04-8.55,1.04-11.06,0-18.74-4.15-23.06-12.44-1.55-2.94-2.68-6.56-3.37-10.88-.69-4.32-1.04-10.1-1.04-17.36v-50c0-9.5.26-16.49.78-20.99,1.04-8.64,5.09-15.11,12.18-19.43,3.28-2.24,8.2-3.37,14.77-3.37,5.18,0,9.8,1.17,13.86,3.5,4.06,2.33,7.55,5.66,10.49,9.98h.52v-65.03h26.43v184.47h-26.43ZM692.47,426.36c0,5.36,1.04,9.68,3.11,12.95,2.07,3.28,5.35,4.92,9.85,4.92,3.97,0,7.17-1.51,9.59-4.53,2.42-3.02,3.63-6.95,3.63-11.79v-51.04c0-4.15-1.25-7.55-3.76-10.23-2.5-2.68-5.66-4.02-9.46-4.02-5.01,0-8.42,1.55-10.23,4.66-1.81,3.11-2.72,6.74-2.72,10.88v48.19Z"/>
    <path class="st0" d="M853.89,337.75h-26.43v-5.96c0-6.04-1.43-11.27-4.27-15.67-2.85-4.41-7.64-6.61-14.38-6.61-3.63,0-6.57.69-8.81,2.07-2.25,1.38-4.06,3.11-5.44,5.18-1.38,2.25-2.33,4.79-2.85,7.64-.52,2.85-.78,5.83-.78,8.94,0,3.63.13,6.65.39,9.07.26,2.42.91,4.58,1.94,6.48,1.04,1.9,2.55,3.54,4.53,4.92,1.98,1.38,4.7,2.77,8.16,4.15l20.21,8.03c5.87,2.25,10.62,4.88,14.25,7.9,3.63,3.02,6.48,6.52,8.55,10.49,1.9,4.15,3.19,8.85,3.89,14.12.69,5.27,1.04,11.27,1.04,18.01,0,7.77-.78,14.99-2.33,21.63-1.55,6.65-4.06,12.31-7.51,16.97-3.63,4.84-8.38,8.64-14.25,11.4-5.87,2.76-13.04,4.15-21.5,4.15-6.39,0-12.35-1.13-17.88-3.37-5.53-2.24-10.28-5.35-14.25-9.33-3.97-3.97-7.13-8.59-9.46-13.86-2.33-5.27-3.5-11.01-3.5-17.23v-9.85h26.43v8.29c0,4.84,1.42,9.2,4.27,13.08,2.85,3.89,7.64,5.83,14.38,5.83,4.49,0,7.99-.65,10.49-1.94,2.5-1.3,4.45-3.15,5.83-5.57,1.38-2.42,2.2-5.31,2.46-8.68.26-3.37.39-7.13.39-11.27,0-4.83-.17-8.81-.52-11.92-.35-3.11-1.04-5.61-2.07-7.51-1.21-1.9-2.81-3.45-4.79-4.66-1.99-1.21-4.62-2.5-7.9-3.89l-18.91-7.77c-11.4-4.66-19.04-10.84-22.93-18.52-3.89-7.68-5.83-17.32-5.83-28.89,0-6.91.95-13.47,2.85-19.69,1.9-6.22,4.75-11.57,8.55-16.06,3.63-4.49,8.25-8.07,13.86-10.75,5.61-2.68,12.31-4.02,20.08-4.02,6.56,0,12.57,1.21,18.01,3.63,5.44,2.42,10.14,5.61,14.12,9.59,7.94,8.29,11.92,17.79,11.92,28.5v12.95Z"/>
    <path class="st0" d="M872.02,337.75v-39.9h26.43v39.9h16.32v20.73h-16.32v72.81c0,3.11.3,5.53.91,7.26.6,1.73,1.6,3.02,2.98,3.89,1.38.87,3.07,1.38,5.05,1.55,1.98.17,4.44.26,7.38.26v24.87h-10.88c-6.05,0-11.1-.95-15.16-2.85-4.06-1.9-7.3-4.32-9.72-7.25-2.42-2.94-4.19-6.26-5.31-9.98-1.13-3.71-1.68-7.29-1.68-10.75v-79.8h-13.21v-20.73h13.21Z"/>
    <path class="st0" d="M922.54,381.79c0-5.35.34-10.27,1.04-14.77.69-4.49,1.98-8.46,3.89-11.92,3.11-5.7,7.55-10.28,13.34-13.73,5.79-3.45,12.82-5.18,21.12-5.18s15.33,1.73,21.12,5.18c5.79,3.46,10.23,8.03,13.34,13.73,1.9,3.46,3.19,7.43,3.89,11.92.69,4.49,1.04,9.42,1.04,14.77v43.27c0,5.36-.35,10.28-1.04,14.77-.69,4.49-1.99,8.46-3.89,11.92-3.11,5.7-7.56,10.28-13.34,13.73-5.79,3.46-12.82,5.18-21.12,5.18s-15.33-1.72-21.12-5.18c-5.79-3.45-10.23-8.03-13.34-13.73-1.9-3.45-3.2-7.42-3.89-11.92-.69-4.49-1.04-9.41-1.04-14.77v-43.27ZM948.97,429.21c0,5.01,1.17,8.77,3.5,11.27,2.33,2.5,5.48,3.76,9.46,3.76s7.13-1.25,9.46-3.76c2.33-2.5,3.5-6.26,3.5-11.27v-51.56c0-5.01-1.17-8.76-3.5-11.27-2.33-2.5-5.49-3.76-9.46-3.76s-7.13,1.25-9.46,3.76c-2.33,2.51-3.5,6.26-3.5,11.27v51.56Z"/>
    <path class="st0" d="M1020.74,469.11v-131.36h26.43v12.7h.52c2.76-4.15,6.09-7.56,9.98-10.23,3.89-2.68,8.85-4.02,14.9-4.02,3.28,0,6.56.56,9.85,1.68,3.28,1.12,6.22,2.98,8.81,5.57s4.66,5.92,6.22,9.98c1.55,4.06,2.33,9.03,2.33,14.9v100.79h-26.43v-90.94c0-4.83-1.13-8.63-3.37-11.4-2.25-2.76-5.44-4.15-9.59-4.15-5.01,0-8.46,1.55-10.36,4.66-1.9,3.11-2.85,7.6-2.85,13.47v88.35h-26.43Z"/>
    <path class="st0" d="M1197.96,413.4h-52.34v17.88c0,4.15,1.17,7.34,3.5,9.59,2.33,2.25,5.48,3.37,9.46,3.37,5.01,0,8.33-1.46,9.98-4.4,1.64-2.94,2.63-5.87,2.98-8.81h26.43c0,11.57-3.54,20.9-10.62,27.98-3.46,3.63-7.6,6.48-12.44,8.55-4.84,2.07-10.28,3.11-16.32,3.11-8.29,0-15.33-1.72-21.12-5.18-5.79-3.45-10.23-8.03-13.34-13.73-1.9-3.45-3.2-7.42-3.89-11.92-.69-4.49-1.04-9.41-1.04-14.77v-43.27c0-5.35.34-10.27,1.04-14.77.69-4.49,1.98-8.46,3.89-11.92,3.11-5.7,7.55-10.28,13.34-13.73,5.79-3.45,12.82-5.18,21.12-5.18,6.04,0,11.53,1.04,16.45,3.11,4.92,2.07,9.11,4.92,12.57,8.55,6.91,7.77,10.36,17.53,10.36,29.28v36.27ZM1145.62,392.68h25.91v-15.03c0-5.01-1.17-8.76-3.5-11.27-2.33-2.5-5.49-3.76-9.46-3.76s-7.13,1.25-9.46,3.76c-2.33,2.51-3.5,6.26-3.5,11.27v15.03Z"/>
    <path class="st0" d="M1205.99,469.11l37.31-96.64-34.46-87.83h27.98l19.95,54.67,20.21-54.67h27.98l-35.24,87.83,38.09,96.64h-27.98l-23.06-62.18-22.8,62.18h-27.98Z"/>
  </g>
</svg>